# xmcd CD database file
# Copyright (C) 1993-1998 Ti Kan
#
# Track frame offsets:
#  183
#  13255
#  22893
#  38210
#  53873
#  63468
#  77153
#  92098
#  101643
#  115710
#  127525
#  139633
#
# Disc length: 2057 seconds
#
# Revision: 1
# Processed by: cddbd v1.4b41PL1 Copyright (c) Steve Scherf et al.
# Submitted via: CDWizzard Release:4.35
#
DISCID=9108070c
DTITLE=Wilma Lee and Stoney Cooper  - Walking My Lord Up Calvary Hill
DYEAR=1900
DGENRE=
TTITLE0=Walking My Lord Up Calvary Hill
TTITLE1=Give Me The Roses While I Live
TTITLE2=Tramp On The Street
TTITLE3=Thirty Pieces Of Silver
TTITLE4=This Old House
TTITLE5=The Drunken Driver
TTITLE6=Great Speckled Bird
TTITLE7=I'm Going Home On The Morning Train
TTITLE8=I Dreamed About Mama Last Night
TTITLE9=Wreck On The Highway
TTITLE10=Little Rosewood Casket
TTITLE11=The Legend Of The Dogwood Trees
EXTD=
EXTT0=
EXTT1=
EXTT2=
EXTT3=
EXTT4=
EXTT5=
EXTT6=
EXTT7=
EXTT8=
EXTT9=
EXTT10=
EXTT11=
PLAYORDER=
